<svg width="447" height="345" viewBox="0 0 447 345" fill="none" xmlns="http://www.w3.org/2000/svg">
<path d="M385.981 30.0778C537.812 106.544 370.858 282.744 247.59 344.603C52.5631 319.8 -85.8526 109.671 62.0329 15.5573C142.997 -35.968 229.86 52.9143 234.634 145.966C234.634 55.6312 300.011 -1.37481 385.981 30.0778Z" fill="#EB5757"/>
<path d="M141.378 207.691C141.378 243.293 159.153 313.562 229.722 313.562C300.274 313.562 318.067 243.293 318.067 207.691C318.067 204.881 294.079 221.843 234.181 221.843C174.284 221.843 141.378 204.881 141.378 207.691Z" fill="url(#paint0_linear)"/>
<path d="M168.863 287.059C182.989 304.64 202.368 313.562 229.811 313.562C257.271 313.562 276.457 304.64 290.582 287.059C280.901 276.67 262.489 260.556 229.811 260.556C197.132 260.556 178.561 276.67 168.863 287.059Z" fill="url(#paint1_linear)"/>
<path d="M160.135 117.317C166.363 121.769 172.023 128.092 169.844 135.978C168.163 141.993 165.25 144.716 159.851 144.764C141.38 145.024 119.404 150.802 100.506 159.256C98.9667 159.943 95.8408 161.34 92.6438 161.269C89.7073 161.198 86.6998 159.896 84.9001 155.657C83.3134 151.939 83.1713 146.469 91.4361 141.496C104.342 133.681 121.203 130.129 136.643 127.192C126.948 120.027 116.507 113.93 105.503 109.005C95.3908 104.411 96.5038 98.1827 97.8537 94.7963C100.861 87.2893 112.275 90.1548 123.382 95.412C136.337 101.462 148.65 108.801 160.135 117.317ZM300.293 116.702C311.759 108.182 324.057 100.843 336.999 94.7965C348.129 89.5393 359.496 86.6739 362.527 94.1808C363.877 97.5672 364.99 103.795 354.878 108.39C343.887 113.309 333.461 119.407 323.785 126.577C339.178 129.489 356.062 133.065 368.945 140.88C377.21 145.853 377.044 151.3 375.481 155.041C373.658 159.304 370.674 160.583 367.737 160.654C364.54 160.725 361.414 159.328 359.875 158.641C341.001 150.187 319.025 144.432 300.578 144.148C295.178 144.101 292.265 141.377 290.584 135.386C288.429 127.5 294.065 121.177 300.293 116.725V116.702Z" fill="#2A3755"/>
<defs>
<linearGradient id="paint0_linear" x1="229.722" y1="189.88" x2="229.722" y2="313.562" gradientUnits="userSpaceOnUse">
<stop stop-color="#472315"/>
<stop offset="1" stop-color="#8B3A0E"/>
</linearGradient>
<linearGradient id="paint1_linear" x1="229.723" y1="260.556" x2="229.723" y2="303.969" gradientUnits="userSpaceOnUse">
<stop stop-color="#FC607C"/>
<stop offset="1" stop-color="#D91F3A"/>
</linearGradient>
</defs>
</svg>
