<svg width="462" height="361" viewBox="0 0 462 361" fill="none" xmlns="http://www.w3.org/2000/svg">
<path d="M393.898 37.8278C545.729 114.294 378.775 290.494 255.506 352.353C60.4796 327.55 -77.9361 117.421 69.9494 23.3073C150.914 -28.218 237.777 60.6643 242.551 153.716C242.551 63.3812 307.927 6.37519 393.898 37.8278Z" stroke="#2A3755" stroke-width="15"/>
<path d="M149.295 215.441C149.295 251.043 167.07 321.312 237.639 321.312C308.191 321.312 325.983 251.043 325.983 215.441C325.983 212.631 301.996 229.593 242.098 229.593C182.201 229.593 149.295 212.631 149.295 215.441Z" fill="url(#paint0_linear)"/>
<path d="M176.78 294.809C190.905 312.39 210.284 321.312 237.727 321.312C265.188 321.312 284.373 312.39 298.499 294.809C288.818 284.42 270.406 268.306 237.727 268.306C205.048 268.306 186.478 284.42 176.78 294.809Z" fill="url(#paint1_linear)"/>
<path d="M168.052 125.067C174.28 129.519 179.94 135.842 177.761 143.728C176.08 149.743 173.167 152.466 167.767 152.514C149.296 152.774 127.32 158.552 108.422 167.006C106.883 167.693 103.757 169.09 100.56 169.019C97.6238 168.948 94.6163 167.646 92.8166 163.407C91.2299 159.689 91.0878 154.219 99.3526 149.246C112.259 141.431 129.12 137.879 144.56 134.942C134.864 127.777 124.423 121.68 113.419 116.755C103.307 112.161 104.42 105.933 105.77 102.546C108.778 95.0393 120.192 97.9048 131.298 103.162C144.253 109.212 156.566 116.551 168.052 125.067ZM308.21 124.452C319.676 115.932 331.974 108.593 344.916 102.547C356.046 97.2893 367.413 94.4239 370.444 101.931C371.794 105.317 372.907 111.545 362.795 116.14C351.803 121.059 341.378 127.157 331.702 134.327C347.094 137.239 363.979 140.815 376.862 148.63C385.126 153.603 384.961 159.05 383.398 162.791C381.574 167.054 378.59 168.333 375.654 168.404C372.457 168.475 369.331 167.078 367.792 166.391C348.918 157.937 326.942 152.182 308.494 151.898C303.095 151.851 300.182 149.127 298.501 143.136C296.346 135.25 301.982 128.927 308.21 124.475V124.452Z" fill="#2A3755"/>
<defs>
<linearGradient id="paint0_linear" x1="237.639" y1="197.63" x2="237.639" y2="321.312" gradientUnits="userSpaceOnUse">
<stop stop-color="#472315"/>
<stop offset="1" stop-color="#8B3A0E"/>
</linearGradient>
<linearGradient id="paint1_linear" x1="237.639" y1="268.306" x2="237.639" y2="311.719" gradientUnits="userSpaceOnUse">
<stop stop-color="#FC607C"/>
<stop offset="1" stop-color="#D91F3A"/>
</linearGradient>
</defs>
</svg>
