<svg width="193" height="193" viewBox="0 0 193 193" fill="none" xmlns="http://www.w3.org/2000/svg">
<path d="M35.1875 96.5965C35.1875 120.902 47.3224 168.875 95.5 168.875C143.666 168.875 155.812 120.902 155.812 96.5965C155.812 94.6786 136.392 84.4375 95.5 84.4375C54.6081 84.4375 35.1875 94.6786 35.1875 96.5965Z" fill="#4F4F4F"/>
<path d="M53.776 150.781C63.4743 162.783 76.7792 168.875 95.6208 168.875C114.475 168.875 127.647 162.783 137.345 150.781C130.699 143.689 118.057 132.688 95.6208 132.688C73.1846 132.688 60.4345 143.689 53.776 150.781Z" fill="url(#paint0_linear)"/>
<path d="M73.9439 49.9873C77.1164 52.2551 79.9993 55.4757 78.8896 59.4926C78.0331 62.5564 76.5494 63.9436 73.7992 63.9677C64.3904 64.1004 53.1964 67.0437 43.5706 71.35C42.7865 71.6998 41.1943 72.4115 39.5658 72.3753C38.0701 72.3391 36.5381 71.6757 35.6214 69.5165C34.8132 67.6227 34.7408 64.8362 38.9506 62.3031C45.5247 58.3225 54.1132 56.5131 61.9779 55.0174C57.0391 51.3678 51.721 48.2619 46.1158 45.7534C40.9651 43.4132 41.532 40.2408 42.2196 38.5159C43.7515 34.6921 49.5656 36.1516 55.2229 38.8295C61.8217 41.9114 68.0937 45.6495 73.9439 49.9873ZM117.092 49.9873C122.932 45.6477 129.196 41.9094 135.788 38.8295C141.458 36.1516 147.248 34.6921 148.792 38.5159C149.479 40.2408 150.046 43.4132 144.896 45.7534C139.297 48.2594 133.986 51.3655 129.058 55.0174C136.898 56.5011 145.499 58.3225 152.061 62.3031C156.271 64.8362 156.186 67.6106 155.39 69.5165C154.461 71.6877 152.941 72.3391 151.446 72.3753C149.817 72.4115 148.225 71.6998 147.441 71.35C137.827 67.0437 126.633 64.1125 117.236 63.9677C114.486 63.9436 113.002 62.5564 112.146 59.5046C111.048 55.4878 113.919 52.2671 117.092 49.9994V49.9873Z" fill="#454545"/>
<g filter="url(#filter0_i)">
<mask id="path-4-inside-1" fill="white">
<path d="M193 96.5C193 122.093 182.833 146.639 164.736 164.736C146.639 182.833 122.093 193 96.5 193C70.9066 193 46.3615 182.833 28.2642 164.736C10.1669 146.639 0 122.093 0 96.5C0 70.9066 10.1669 46.3615 28.2642 28.2642C46.3615 10.1669 70.9066 0 96.5 0C122.093 0 146.639 10.1669 164.736 28.2642C182.833 46.3615 193 70.9066 193 96.5"/>
</mask>
<path d="M96.5 193V194V193ZM0 96.5H-1H0ZM96.5 0V-1V0ZM192 96.5C192 121.828 181.938 146.119 164.029 164.029L165.443 165.443C183.728 147.158 194 122.359 194 96.5H192ZM164.029 164.029C146.119 181.938 121.828 192 96.5 192V194C122.359 194 147.158 183.728 165.443 165.443L164.029 164.029ZM96.5 192C71.1718 192 46.881 181.938 28.9713 164.029L27.5571 165.443C45.8419 183.728 70.6414 194 96.5 194V192ZM28.9713 164.029C11.0616 146.119 1 121.828 1 96.5H-1C-1 122.359 9.27229 147.158 27.5571 165.443L28.9713 164.029ZM1 96.5C1 71.1718 11.0616 46.881 28.9713 28.9713L27.5571 27.5571C9.27229 45.8419 -1 70.6414 -1 96.5H1ZM28.9713 28.9713C46.881 11.0616 71.1718 1 96.5 1V-1C70.6414 -1 45.8419 9.27229 27.5571 27.5571L28.9713 28.9713ZM96.5 1C121.828 1 146.119 11.0616 164.029 28.9713L165.443 27.5571C147.158 9.27229 122.359 -1 96.5 -1V1ZM164.029 28.9713C181.938 46.881 192 71.1718 192 96.5H194C194 70.6414 183.728 45.8419 165.443 27.5571L164.029 28.9713Z" fill="black" mask="url(#path-4-inside-1)"/>
</g>
<defs>
<filter id="filter0_i" x="0" y="-1" width="193" height="194" filterUnits="userSpaceOnUse" color-interpolation-filters="sRGB">
<feFlood flood-opacity="0" result="BackgroundImageFix"/>
<feBlend mode="normal" in="SourceGraphic" in2="BackgroundImageFix" result="shape"/>
<feColorMatrix in="SourceAlpha" type="matrix" values="0 0 0 0 0 0 0 0 0 0 0 0 0 0 0 0 0 0 127 0" result="hardAlpha"/>
<feOffset dy="-1"/>
<feGaussianBlur stdDeviation="1"/>
<feComposite in2="hardAlpha" operator="arithmetic" k2="-1" k3="1"/>
<feColorMatrix type="matrix" values="0 0 0 0 0.921365 0 0 0 0 0.460683 0 0 0 0 0 0 0 0 0.35 0"/>
<feBlend mode="normal" in2="shape" result="effect1_innerShadow"/>
</filter>
<linearGradient id="paint0_linear" x1="95.5605" y1="132.688" x2="95.5605" y2="162.326" gradientUnits="userSpaceOnUse">
<stop stop-color="#FC607C"/>
<stop offset="1" stop-color="#D91F3A"/>
</linearGradient>
</defs>
</svg>
