<svg width="172" height="172" viewBox="0 0 172 172" fill="none" xmlns="http://www.w3.org/2000/svg">
<rect width="172" height="172" rx="51" fill="url(#paint0_radial)"/>
<path d="M129 42.5C129 42.8935 128.679 43.6623 126.789 44.736C124.923 45.7963 121.973 46.8784 117.963 47.842C109.98 49.7604 98.6798 51 86 51C73.3202 51 62.0198 49.7604 54.0369 47.842C50.0267 46.8784 47.0773 45.7963 45.211 44.736C43.3213 43.6623 43 42.8935 43 42.5C43 42.1065 43.3213 41.3377 45.211 40.264C47.0773 39.2037 50.0267 38.1216 54.0369 37.1579C62.0198 35.2396 73.3202 34 86 34C98.6798 34 109.98 35.2396 117.963 37.1579C121.973 38.1216 124.923 39.2037 126.789 40.264C128.679 41.3377 129 42.1065 129 42.5Z" stroke="white" stroke-width="9"/>
<path d="M137.487 54C138.259 67.1167 134.952 74.9434 120 83.141L128.624 98C151.159 83.141 146.651 62.1978 137.487 54Z" fill="white"/>
<path d="M33.1782 54C32.5374 65.2528 37.584 74.2198 50 81.2528L42.8386 94C21.354 81.2528 25.5683 61.0329 33.1782 54Z" fill="white"/>
<path fill-rule="evenodd" clip-rule="evenodd" d="M139 105C139 126.539 113.928 144 83 144C81.9776 144 80.9617 143.981 79.9527 143.943C95.8233 142.875 104.243 126.888 105.4 110.571C83.3394 121.714 71.4606 124.5 49.4001 113.357C50.7708 123.152 54.7889 138.707 69.8487 142.918C45.2661 138.798 27 123.385 27 105C27 83.4608 52.072 66 83 66C113.928 66 139 83.4608 139 105ZM77.4 105H127.8C127.529 97.5715 122.598 82.7143 105.039 82.7143C87.48 82.7143 79.2968 97.5715 77.4 105ZM66.2001 105H38.1999C39.2538 99.4286 43.8001 88.2857 53.5548 88.2857C63.3096 88.2857 66.0495 99.4286 66.2001 105Z" fill="white"/>
<defs>
<radialGradient id="paint0_radial" cx="0" cy="0" r="1" gradientUnits="userSpaceOnUse" gradientTransform="translate(33.325 31.7125) rotate(50.3322) scale(286.291)">
<stop offset="0.275923" stop-color="#F8BF50"/>
<stop offset="0.963156" stop-color="#FF3F3F"/>
</radialGradient>
</defs>
</svg>
