<svg width="525" height="72" viewBox="0 0 525 72" fill="none" xmlns="http://www.w3.org/2000/svg">
<path d="M273.871 35.1282C293.981 52.9859 273.871 84.282 261.495 55.5569C249.12 26.832 226.689 58.4696 226.689 43.1389C226.689 27.8081 244.479 28.5908 244.479 28.5908C226.689 11.4988 193.032 14.6261 187.242 35.1282C181.452 55.6303 164.411 60.9144 159.397 54.8548C149.703 43.1389 181.054 17 149.703 1.84226C152.797 21.0611 139.13 35.1282 132.3 35.1282C129.113 35.8596 112.41 31.9648 117.217 15.6806C117.217 2.93065 105.228 1.84226 99.814 1.84226C99.814 5.84468 106.516 19.235 94.013 23.5682C84.7553 26.7769 73.5951 40.3378 88.1655 51.8482C94.8839 57.1561 69.7377 35.6608 60.4774 55.5569C59.7184 57.1875 54.305 55.4454 60.4774 45.9213C66.6498 36.3972 60.4774 34.3487 58.6561 32.4838C44.9966 18.4972 59.9092 12.9822 52.4334 15.6806C45.4519 18.2007 42.2854 29.5543 40.8236 34.2105C39.3617 38.8667 29.531 37.1735 32.7796 27.8082C40.8236 13.1364 29.0415 -1.93182 16.6659 1.84226C22.4333 12.0708 18.5944 18 8.59439 24C3.59439 26.5 3.03281 26.4557 2.36109e-05 27.5C2.36109e-05 30 0 33.1932 0 46.0443V72H261.5H393H524.5V42C524.5 32.3366 524.545 27 524.5 27.5C522.967 28.5 517.039 28.4006 514.5 28C501.039 25.8766 503 17 486.5 19C495.5 30.8481 496 35.5 488 42C482.179 46.7294 466 35.5 463.297 30.8481C458.489 27.9642 453.137 0 428.54 0C450.197 14.6817 406.2 26.448 414.152 46.6354C376.743 71.8635 350.001 30.1145 392.986 21.1149C357.406 6.81692 339.616 30.7209 339.616 43.1389C339.616 55.5568 310.998 63.2715 310.224 46.6354C309.451 29.9994 283.926 22.3444 273.871 35.1282Z" fill="white"/>
</svg>
