<svg width="84" height="84" viewBox="0 0 84 84" fill="none" xmlns="http://www.w3.org/2000/svg">
<path d="M70 12.5C70 12.7546 69.7908 13.2521 68.5603 13.9468C67.3449 14.6329 65.4246 15.3331 62.8132 15.9566C57.615 17.1979 50.2566 18 42 18C33.7434 18 26.385 17.1979 21.1868 15.9566C18.5755 15.3331 16.655 14.6329 15.4397 13.9468C14.2092 13.2521 14 12.7546 14 12.5C14 12.2454 14.2092 11.7479 15.4397 11.0532C16.655 10.3671 18.5755 9.66694 21.1868 9.04336C26.385 7.80207 33.7434 7 42 7C50.2566 7 57.615 7.80207 62.8132 9.04336C65.4246 9.66694 67.3449 10.3671 68.5603 11.0532C69.7908 11.7479 70 12.2454 70 12.5Z" stroke="white" stroke-width="5"/>
<path d="M75.192 20C75.6858 28.347 73.569 33.3276 64 38.5443L69.5192 48C83.942 38.5443 81.0569 25.2168 75.192 20Z" fill="white"/>
<path d="M8.02926 20C7.61133 27.3143 10.9026 33.1429 19 37.7143L14.3295 46C0.317859 37.7143 3.06632 24.5714 8.02926 20Z" fill="white"/>
<path fill-rule="evenodd" clip-rule="evenodd" d="M76.3384 52.7947C76.3384 66.7676 60.1566 78.0948 40.1954 78.0948C39.5355 78.0948 38.8798 78.0824 38.2286 78.058C48.4717 77.3647 53.9058 66.9938 54.6526 56.409C40.4144 63.6376 32.7477 65.4448 18.5096 58.2161C19.3943 64.5706 21.9876 74.6611 31.7074 77.3932C15.8415 74.7202 4.05235 64.7212 4.05235 52.7947C4.05235 38.8218 20.2341 27.4946 40.1954 27.4946C60.1566 27.4946 76.3384 38.8218 76.3384 52.7947ZM36.5811 52.7947H69.1098C68.9349 47.9757 65.7521 38.3375 54.4195 38.3375C43.0868 38.3375 37.8053 47.9757 36.5811 52.7947ZM29.3525 52.7947H11.2809C11.9611 49.1804 14.8953 41.9518 21.1911 41.9518C27.487 41.9518 29.2553 49.1804 29.3525 52.7947Z" fill="white"/>
</svg>
